<svg width="25" height="24" viewBox="0 0 25 24" fill="none" xmlns="http://www.w3.org/2000/svg">
<path fill-rule="evenodd" clip-rule="evenodd" d="M7.2777 0.072C8.55734 0.0130909 8.96534 0 12.225 0C15.4846 0 15.8926 0.0141818 17.1712 0.072C18.4497 0.129818 19.3224 0.333818 20.0861 0.629455C20.8857 0.931636 21.6112 1.404 22.2112 2.01491C22.8221 2.61382 23.2933 3.33818 23.5944 4.13891C23.8912 4.90255 24.0941 5.77527 24.153 7.05164C24.2119 8.33346 24.225 8.74146 24.225 12C24.225 15.2596 24.2108 15.6676 24.153 16.9473C24.0952 18.2236 23.8912 19.0964 23.5944 19.86C23.2933 20.6608 22.8213 21.3864 22.2112 21.9862C21.6112 22.5971 20.8857 23.0684 20.0861 23.3695C19.3224 23.6662 18.4497 23.8691 17.1733 23.928C15.8926 23.9869 15.4846 24 12.225 24C8.96534 24 8.55734 23.9858 7.2777 23.928C6.00134 23.8702 5.12861 23.6662 4.36498 23.3695C3.56416 23.0683 2.8386 22.5963 2.23879 21.9862C1.6283 21.3869 1.15586 20.6617 0.85443 19.8611C0.558794 19.0975 0.355885 18.2247 0.296976 16.9484C0.238066 15.6665 0.224976 15.2585 0.224976 12C0.224976 8.74036 0.239157 8.33236 0.296976 7.05382C0.354794 5.77527 0.558794 4.90255 0.85443 4.13891C1.15631 3.33827 1.62911 2.61307 2.23988 2.01382C2.83884 1.40346 3.56367 0.931029 4.36388 0.629455C5.12752 0.333818 6.00025 0.130909 7.27661 0.072H7.2777ZM17.0741 2.232C15.8086 2.17418 15.429 2.16218 12.225 2.16218C9.02098 2.16218 8.64134 2.17418 7.37588 2.232C6.20534 2.28545 5.57043 2.48073 5.14716 2.64545C4.58752 2.86364 4.18716 3.12218 3.76716 3.54218C3.36902 3.92951 3.06263 4.40103 2.87043 4.92218C2.7057 5.34545 2.51043 5.98036 2.45698 7.15091C2.39916 8.41636 2.38716 8.796 2.38716 12C2.38716 15.204 2.39916 15.5836 2.45698 16.8491C2.51043 18.0196 2.7057 18.6545 2.87043 19.0778C3.06243 19.5982 3.36898 20.0705 3.76716 20.4578C4.15443 20.856 4.62679 21.1625 5.14716 21.3545C5.57043 21.5193 6.20534 21.7145 7.37588 21.768C8.64134 21.8258 9.01989 21.8378 12.225 21.8378C15.4301 21.8378 15.8086 21.8258 17.0741 21.768C18.2446 21.7145 18.8795 21.5193 19.3028 21.3545C19.8624 21.1364 20.2628 20.8778 20.6828 20.4578C21.081 20.0705 21.3875 19.5982 21.5795 19.0778C21.7443 18.6545 21.9395 18.0196 21.993 16.8491C22.0508 15.5836 22.0628 15.204 22.0628 12C22.0628 8.796 22.0508 8.41636 21.993 7.15091C21.9395 5.98036 21.7443 5.34545 21.5795 4.92218C21.3613 4.36255 21.1028 3.96218 20.6828 3.54218C20.2954 3.14408 19.8239 2.83768 19.3028 2.64545C18.8795 2.48073 18.2446 2.28545 17.0741 2.232ZM10.6922 15.6993C11.5482 16.0556 12.5014 16.1037 13.3889 15.8353C14.2764 15.567 15.0432 14.9988 15.5584 14.2279C16.0735 13.457 16.305 12.5311 16.2134 11.6085C16.1217 10.6858 15.7126 9.82361 15.0559 9.16909C14.6372 8.7507 14.131 8.43034 13.5737 8.23107C13.0164 8.0318 12.4218 7.95857 11.8328 8.01667C11.2438 8.07477 10.675 8.26274 10.1673 8.56705C9.65965 8.87136 9.22579 9.28445 8.89694 9.77656C8.5681 10.2687 8.35245 10.8276 8.26554 11.413C8.17862 11.9985 8.2226 12.596 8.39429 13.1624C8.56599 13.7288 8.86114 14.2501 9.25849 14.6888C9.65584 15.1275 10.1455 15.4726 10.6922 15.6993ZM7.86352 7.63855C8.43627 7.06579 9.11623 6.61146 9.86457 6.30149C10.6129 5.99151 11.415 5.83197 12.225 5.83197C13.035 5.83197 13.837 5.99151 14.5854 6.30148C15.3337 6.61146 16.0137 7.06579 16.5864 7.63855C17.1592 8.2113 17.6135 8.89126 17.9235 9.6396C18.2335 10.3879 18.393 11.19 18.393 12C18.393 12.81 18.2335 13.6121 17.9235 14.3604C17.6135 15.1087 17.1592 15.7887 16.5864 16.3615C15.4297 17.5182 13.8608 18.168 12.225 18.168C10.5891 18.168 9.02025 17.5182 7.86352 16.3615C6.70679 15.2047 6.05695 13.6359 6.05695 12C6.05695 10.3641 6.70679 8.79527 7.86352 7.63855ZM19.761 6.75055C19.9029 6.61666 20.0165 6.45565 20.0951 6.27706C20.1737 6.09847 20.2157 5.90593 20.2185 5.71083C20.2214 5.51574 20.185 5.32205 20.1117 5.14125C20.0383 4.96044 19.9294 4.79619 19.7915 4.65822C19.6535 4.52026 19.4893 4.41137 19.3085 4.33802C19.1277 4.26467 18.934 4.22834 18.7389 4.23118C18.5438 4.23403 18.3512 4.27599 18.1726 4.35458C17.9941 4.43317 17.833 4.54679 17.6992 4.68873C17.4388 4.96476 17.2962 5.33141 17.3017 5.71083C17.3073 6.09026 17.4605 6.45259 17.7288 6.72092C17.9971 6.98924 18.3594 7.14243 18.7389 7.14796C19.1183 7.15349 19.4849 7.01093 19.761 6.75055Z" fill="#E27D60"/>
</svg>
