<svg width="25" height="24" viewBox="0 0 25 24" fill="none" xmlns="http://www.w3.org/2000/svg">
<path d="M24.225 2.84684C23.3424 3.32792 22.3943 3.65297 21.3975 3.79989C22.426 3.0429 23.1954 1.85148 23.5622 0.447947C22.596 1.15395 21.5385 1.6509 20.4357 1.91719C19.6941 0.943152 18.7118 0.297546 17.6413 0.0806033C16.5709 -0.13634 15.4721 0.0875171 14.5157 0.71742C13.5593 1.34732 12.7987 2.34803 12.352 3.56417C11.9053 4.78031 11.7975 6.14385 12.0453 7.44309C10.0874 7.32216 8.17208 6.69618 6.42361 5.60576C4.67513 4.51535 3.13259 2.98487 1.89608 1.11366C1.47328 2.0108 1.23017 3.05097 1.23017 4.15875C1.2297 5.15601 1.42934 6.13799 1.81139 7.01757C2.19343 7.89715 2.74607 8.64713 3.42025 9.20098C2.63837 9.17037 1.87374 8.91049 1.19001 8.44295V8.52096C1.18993 9.91965 1.58324 11.2753 2.30321 12.3579C3.02318 13.4405 4.02546 14.1833 5.13998 14.4603C4.41465 14.7018 3.65421 14.7374 2.91607 14.5644C3.23052 15.7678 3.84305 16.8203 4.66789 17.5742C5.49273 18.3282 6.48861 18.7461 7.51609 18.7692C5.77188 20.4535 3.61779 21.3672 1.40035 21.3632C1.00755 21.3633 0.615085 21.3351 0.224976 21.2786C2.47581 23.0589 5.09594 24.0037 7.77188 24C16.8303 24 21.7823 14.7711 21.7823 6.76698C21.7823 6.50694 21.777 6.24429 21.7675 5.98425C22.7307 5.12738 23.5621 4.0663 24.2229 2.85074L24.225 2.84684Z" fill="#E27D60"/>
</svg>
