<svg width="25" height="24" viewBox="0 0 25 24" fill="none" xmlns="http://www.w3.org/2000/svg">
<path d="M24.2131 5.54778C24.1079 8.25029 22.476 11.9474 19.3217 16.6444C16.0612 21.5481 13.299 24 11.0385 24C9.63851 24 8.45567 22.5041 7.48883 19.5216C6.84428 16.7818 6.20086 14.0419 5.54944 11.3088C4.83289 8.32628 4.06376 6.83037 3.2352 6.83037C3.05806 6.83037 2.42722 7.27035 1.35524 8.13696L0.224976 6.45039C1.40781 5.24247 2.57922 4.04387 3.72891 2.83728C5.30602 1.25738 6.49685 0.430759 7.28541 0.346764C9.15166 0.142776 10.3025 1.61469 10.7368 4.77983C11.203 8.18762 11.5253 10.3128 11.7093 11.1394C12.2487 13.9713 12.8407 15.3832 13.4841 15.3832C13.9836 15.3832 14.7401 14.4659 15.7458 12.6287C16.7515 10.7915 17.2898 9.39555 17.3629 8.43827C17.5069 6.8517 16.9687 6.06242 15.7458 6.06242C15.1744 6.06242 14.5824 6.21441 13.971 6.51839C15.1481 2.04799 17.4018 -0.123874 20.7286 0.00545106C23.1937 0.0814465 24.3571 1.93333 24.2131 5.54645V5.54778Z" fill="#E27D60"/>
</svg>
